<?xml version="1.0" encoding="UTF-8" standalone="no"?>
<svg
   width="64pt"
   height="64pt"
   viewBox="0 0 22.577778 22.577778"
   version="1.1"
   id="svg831"
   inkscape:version="1.1.2 (1:1.1+202202050950+0a00cf5339)"
   sodipodi:docname="9 - Price Tag.svg"
   inkscape:export-filename="/media/taufikramadhan/Data/Tr Design Studio/Project Design/TR Creative Design/Icon Design/Project Hiring/Icon Icons/019 - Commerce And Shopping/5 - Send/9 - Price Tag.png"
   inkscape:export-xdpi="576"
   inkscape:export-ydpi="576"
   xmlns:inkscape="http://www.inkscape.org/namespaces/inkscape"
   xmlns:sodipodi="http://sodipodi.sourceforge.net/DTD/sodipodi-0.dtd"
   xmlns="http://www.w3.org/2000/svg"
   xmlns:svg="http://www.w3.org/2000/svg"
   xmlns:rdf="http://www.w3.org/1999/02/22-rdf-syntax-ns#"
   xmlns:cc="http://creativecommons.org/ns#"
   xmlns:dc="http://purl.org/dc/elements/1.1/">
  <defs
     id="defs825">
    <pattern
       id="EMFhbasepattern"
       patternUnits="userSpaceOnUse"
       width="6"
       height="6"
       x="0"
       y="0" />
    <pattern
       id="EMFhbasepattern-9"
       patternUnits="userSpaceOnUse"
       width="6"
       height="6"
       x="0"
       y="0" />
    <pattern
       id="EMFhbasepattern-0"
       patternUnits="userSpaceOnUse"
       width="6"
       height="6"
       x="0"
       y="0" />
    <pattern
       id="EMFhbasepattern-7"
       patternUnits="userSpaceOnUse"
       width="6"
       height="6"
       x="0"
       y="0" />
    <pattern
       id="EMFhbasepattern-2"
       patternUnits="userSpaceOnUse"
       width="6"
       height="6"
       x="0"
       y="0" />
    <pattern
       id="EMFhbasepattern-98"
       patternUnits="userSpaceOnUse"
       width="6"
       height="6"
       x="0"
       y="0" />
    <pattern
       id="EMFhbasepattern-6"
       patternUnits="userSpaceOnUse"
       width="6"
       height="6"
       x="0"
       y="0" />
    <pattern
       id="EMFhbasepattern-01"
       patternUnits="userSpaceOnUse"
       width="6"
       height="6"
       x="0"
       y="0" />
    <pattern
       id="EMFhbasepattern-07"
       patternUnits="userSpaceOnUse"
       width="6"
       height="6"
       x="0"
       y="0" />
    <pattern
       id="EMFhbasepattern-8"
       patternUnits="userSpaceOnUse"
       width="6"
       height="6"
       x="0"
       y="0" />
    <pattern
       id="EMFhbasepattern-4"
       patternUnits="userSpaceOnUse"
       width="6"
       height="6"
       x="0"
       y="0" />
    <pattern
       id="EMFhbasepattern-40"
       patternUnits="userSpaceOnUse"
       width="6"
       height="6"
       x="0"
       y="0" />
    <pattern
       id="EMFhbasepattern-08"
       patternUnits="userSpaceOnUse"
       width="6"
       height="6"
       x="0"
       y="0" />
    <pattern
       id="EMFhbasepattern-04"
       patternUnits="userSpaceOnUse"
       width="6"
       height="6"
       x="0"
       y="0" />
    <pattern
       id="EMFhbasepattern-014"
       patternUnits="userSpaceOnUse"
       width="6"
       height="6"
       x="0"
       y="0" />
    <pattern
       id="EMFhbasepattern-27"
       patternUnits="userSpaceOnUse"
       width="6"
       height="6"
       x="0"
       y="0" />
    <pattern
       id="EMFhbasepattern-09"
       patternUnits="userSpaceOnUse"
       width="6"
       height="6"
       x="0"
       y="0" />
    <pattern
       id="EMFhbasepattern-5"
       patternUnits="userSpaceOnUse"
       width="6"
       height="6"
       x="0"
       y="0" />
    <pattern
       id="EMFhbasepattern-018"
       patternUnits="userSpaceOnUse"
       width="6"
       height="6"
       x="0"
       y="0" />
    <inkscape:path-effect
       effect="fillet_chamfer"
       id="path-effect48878"
       is_visible="true"
       lpeversion="1"
       satellites_param="F,0,0,1,0,0,0,1 @ F,0,0,1,0,0,0,1 @ F,0,0,1,0,0,0,1 @ F,0,0,1,0,0,0,1 @ F,0,0,1,0,0,0,1 @ F,0,0,1,0,0,0,1 @ F,0,0,1,0,0,0,1 @ F,0,0,1,0,0,0,1 @ F,0,0,1,0,0,0,1 @ F,0,0,1,0,0,0,1"
       unit="px"
       method="auto"
       mode="F"
       radius="0"
       chamfer_steps="1"
       flexible="false"
       use_knot_distance="true"
       apply_no_radius="true"
       apply_with_radius="true"
       only_selected="false"
       hide_knots="false" />
  </defs>
  <sodipodi:namedview
     id="base"
     pagecolor="#ffffff"
     bordercolor="#666666"
     borderopacity="1.0"
     inkscape:pageopacity="0.0"
     inkscape:pageshadow="2"
     inkscape:zoom="4.4249417"
     inkscape:cx="50.50914"
     inkscape:cy="47.458252"
     inkscape:document-units="pt"
     inkscape:current-layer="layer1"
     showgrid="false"
     units="pt"
     inkscape:window-width="1366"
     inkscape:window-height="705"
     inkscape:window-x="0"
     inkscape:window-y="31"
     inkscape:window-maximized="1"
     inkscape:pagecheckerboard="true"
     inkscape:showpageshadow="false"
     inkscape:object-paths="true"
     inkscape:snap-intersection-paths="true"
     inkscape:snap-smooth-nodes="true"
     inkscape:snap-midpoints="true"
     showguides="true"
     inkscape:snap-bbox="true"
     inkscape:bbox-nodes="true"
     inkscape:snap-nodes="false"
     inkscape:snap-global="true"
     inkscape:document-rotation="0">
    <inkscape:grid
       type="xygrid"
       id="grid1378" />
    <sodipodi:guide
       position="0.97013831,21.607643"
       orientation="78.000048,0"
       id="guide1380"
       inkscape:locked="false" />
    <sodipodi:guide
       position="0.97013831,0.97013129"
       orientation="0,78.000005"
       id="guide1382"
       inkscape:locked="false" />
    <sodipodi:guide
       position="21.607639,0.97013129"
       orientation="-78.000048,0"
       id="guide1384"
       inkscape:locked="false" />
    <sodipodi:guide
       position="21.607639,21.607643"
       orientation="0,-78.000005"
       id="guide1386"
       inkscape:locked="false" />
  </sodipodi:namedview>
  <metadata
     id="metadata828">
    <rdf:RDF>
      <cc:Work
         rdf:about="">
        <dc:format>image/svg+xml</dc:format>
        <dc:type
           rdf:resource="http://purl.org/dc/dcmitype/StillImage" />
      </cc:Work>
    </rdf:RDF>
  </metadata>
  <g
     inkscape:label="Icon"
     inkscape:groupmode="layer"
     id="layer1"
     transform="translate(0,-274.42223)">
    <g
       id="g115600"
       style="display:inline;stroke-width:0.794695"
       transform="matrix(1.2583443,0,0,1.2583443,0.32066649,-77.362727)">
      <path
         style="color:#000000;clip-rule:evenodd;fill:#dc1c4b;fill-rule:evenodd;stroke-width:0.794695;stroke-linecap:round;stroke-linejoin:round;stroke-miterlimit:1.5;-inkscape-stroke:none"
         d="m 12.941406,287.98633 c -0.346032,0 -0.679129,0.13779 -0.923828,0.38281 l -4.5410155,4.54102 c -0.2446848,0.24468 -0.3828125,0.57763 -0.3828125,0.92382 0,0.34602 0.1381277,0.6772 0.3828125,0.92188 0.3900494,0.3898 0.8814227,0.88142 1.3378906,1.33789 0.852701,0.85269 2.2430019,0.85269 3.0957029,0 0.983694,-0.98396 2.307267,-2.30727 3.291016,-3.29102 0.852649,-0.85294 0.852701,-2.243 0,-3.0957 -0.456436,-0.45644 -0.948005,-0.94801 -1.337891,-1.33789 -0.244875,-0.24488 -0.575841,-0.38281 -0.921875,-0.38281 z"
         id="path1623040"
         inkscape:path-effect="#path-effect48878"
         inkscape:original-d="m 12.941406,287.98633 c -0.346032,0 -0.679129,0.13779 -0.923828,0.38281 l -4.5410155,4.54102 c -0.2446848,0.24468 -0.3828125,0.57763 -0.3828125,0.92382 0,0.34602 0.1381277,0.6772 0.3828125,0.92188 0.3900494,0.3898 0.8814227,0.88142 1.3378906,1.33789 0.852701,0.85269 2.2430019,0.85269 3.0957029,0 0.983694,-0.98396 2.307267,-2.30727 3.291016,-3.29102 0.852649,-0.85294 0.852701,-2.243 0,-3.0957 -0.456436,-0.45644 -0.948005,-0.94801 -1.337891,-1.33789 -0.244875,-0.24488 -0.575841,-0.38281 -0.921875,-0.38281 z" />
      <path
         id="path37010"
         style="color:#000000;clip-rule:evenodd;fill:#b01d47;fill-opacity:1;fill-rule:evenodd;stroke-width:0.794695;stroke-linecap:round;stroke-linejoin:round;stroke-miterlimit:1.5;-inkscape-stroke:none"
         d="m 12.017355,288.369 -4.5408087,4.54132 c -0.2446848,0.24468 -0.3829222,0.57727 -0.3829222,0.92346 0,0.34602 0.1382374,0.67723 0.3829222,0.92191 0.3085449,0.30835 0.4651063,0.46504 0.8330242,0.83302 -0.2446848,-0.24468 -0.3829225,-0.57589 -0.3829225,-0.92191 0,-0.34619 0.1382377,-0.67878 0.3829225,-0.92346 1.3498291,-1.34994 2.6995975,-2.69994 4.0494195,-4.04989 0.488854,-0.4889 1.28147,-0.4889 1.770345,-3e-5 l 0.542649,0.54266 c 0.852701,0.8527 0.852649,2.24299 0,3.09593 0.172939,-0.17293 0.370976,-0.37098 0.529167,-0.52917 0.852648,-0.85294 0.852701,-2.24323 0,-3.09593 -0.454198,-0.4542 -0.956291,-0.9563 -1.337903,-1.3379 -0.244875,-0.24488 -0.575874,-0.38241 -0.921914,-0.38241 -0.346037,-1e-5 -0.67928,0.13738 -0.923979,0.3824 z"
         sodipodi:nodetypes="ccsccsccccccccc" />
      <path
         style="color:#000000;clip-rule:evenodd;fill:#311a12;fill-opacity:1;fill-rule:evenodd;stroke-width:0.794695;stroke-linecap:round;stroke-linejoin:round;stroke-miterlimit:1.5;-inkscape-stroke:none"
         d="m 6.453125,280.35742 c -0.4981084,0.0586 -0.9515791,0.21812 -1.34375,0.44141 -0.7843418,0.44656 -1.3320433,1.13563 -1.5507812,1.8164 a 0.2645835,0.2645835 0 0 0 0.1699218,0.33399 0.2645835,0.2645835 0 0 0 0.3339844,-0.17188 c 0.1703867,-0.53028 0.6389253,-1.13825 1.3085937,-1.51953 0.6696685,-0.38127 1.5303625,-0.54895 2.5332032,-0.23437 0.9550966,0.29976 1.4892994,0.84568 2.0957031,1.38476 0.805817,0.71631 1.770036,1.38234 3.769531,1.10742 0.784246,-0.10782 1.445556,-0.47341 1.824219,-0.95703 0.189332,-0.2418 0.308911,-0.51946 0.308594,-0.8125 -3.18e-4,-0.29303 -0.132318,-0.58854 -0.38086,-0.81836 -0.325087,-0.30062 -0.790963,-0.29185 -1.095703,-0.0586 -0.15237,0.11663 -0.267927,0.30223 -0.28125,0.51758 -0.01332,0.21535 0.07183,0.44211 0.242188,0.65234 a 0.2645835,0.2645835 0 0 0 0.371094,0.0391 0.2645835,0.2645835 0 0 0 0.03906,-0.37304 c -0.110182,-0.13597 -0.128464,-0.22916 -0.125,-0.28516 0.0035,-0.056 0.02596,-0.0939 0.07422,-0.13086 0.09651,-0.0739 0.28543,-0.0934 0.416015,0.0274 0.159378,0.14737 0.210779,0.2836 0.210938,0.42968 1.58e-4,0.14608 -0.06288,0.3147 -0.197266,0.48633 -0.268777,0.34327 -0.818022,0.66701 -1.478515,0.75781 -1.872445,0.25745 -2.56454,-0.28412 -3.345703,-0.97851 -0.5878928,-0.52263 -1.2111615,-1.15389 -2.289063,-1.49219 -0.5694343,-0.17862 -1.1112666,-0.22072 -1.609375,-0.16211 z"
         id="path221813" />
      <path
         id="path1623050"
         style="color:#000000;clip-rule:evenodd;fill:#fca311;fill-rule:evenodd;stroke-width:0.794695;stroke-linecap:round;stroke-linejoin:round;stroke-miterlimit:1.5;-inkscape-stroke:none"
         d="m 3.970817,282.42311 c -0.1941163,2.3e-4 -0.3868253,0.0238 -0.5741249,0.0692 -0.4281136,0.10383 -0.8278398,0.32351 -1.1508343,0.64647 -0.64594,0.64622 -0.8779075,1.60053 -0.5994466,2.47065 0.4754883,1.48668 0.9712305,3.03373 1.2676229,3.961 0.1929149,0.60269 0.5272286,1.14993 0.9746176,1.59732 0.5966394,0.59664 1.4874503,1.48823 2.1151163,2.11563 0.5077791,0.50809 1.3399479,0.508 1.8479493,0 l 4.5387407,-4.53925 c 0.508003,-0.508 0.508003,-1.33944 0,-1.84744 -0.627403,-0.62741 -1.518796,-1.51906 -2.115116,-2.11563 -0.4473878,-0.44739 -0.9952851,-0.78192 -1.5978353,-0.97462 -0.6810375,-0.21795 -1.695309,-0.54288 -2.7750244,-0.88831 L 4.7170249,282.53886 C 4.4722398,282.46055 4.2203956,282.4228 3.970817,282.42311 Z m 0.5012616,2.44016 c 0.127558,-2e-5 0.2549925,0.0493 0.3534667,0.14779 0.1969461,0.19695 0.1968241,0.50821 0,0.70487 -0.1969468,0.19695 -0.5102855,0.19682 -0.7069336,0 -0.1968249,-0.19666 -0.1969471,-0.50792 0,-0.70487 0.098325,-0.0984 0.2259087,-0.14778 0.3534669,-0.14779 z" />
      <path
         id="path17211"
         style="color:#000000;clip-rule:evenodd;fill:#ec7523;fill-opacity:1;fill-rule:evenodd;stroke-width:0.794695;stroke-linecap:round;stroke-linejoin:round;stroke-miterlimit:1.5;-inkscape-stroke:none"
         d="m 3.9708171,282.42311 c -0.1941166,2.3e-4 -0.3868256,0.0238 -0.5741252,0.0692 -0.4281135,0.10383 -0.8278396,0.32351 -1.1508342,0.64647 -0.089153,0.0892 -0.1697464,0.18432 -0.2428793,0.28422 0.2611905,-0.19103 0.55543,-0.32655 0.8645468,-0.40152 0.4281134,-0.1038 0.8851594,-0.0927 1.3203329,0.0465 l 1.1854574,0.3793 c 1.0797155,0.34543 2.0939871,0.67037 2.7750245,0.88832 0.6025502,0.1927 1.1504475,0.52723 1.5978354,0.97462 0.5963196,0.59657 2.3641456,2.18017 2.9915486,2.80758 0.09837,-0.42548 -0.01749,-0.89135 -0.347266,-1.22112 -0.627403,-0.62741 -1.518796,-1.51906 -2.115116,-2.11563 -0.4473878,-0.44739 -0.9952852,-0.78192 -1.5978354,-0.97462 -0.6810375,-0.21795 -1.6953089,-0.54288 -2.7750244,-0.88831 l -1.1854574,-0.37931 c -0.2447851,-0.0783 -0.4966293,-0.11606 -0.7462077,-0.11575 z" />
      <path
         style="color:#000000;clip-rule:evenodd;fill:#801231;fill-rule:evenodd;stroke-width:0.794695;stroke-linecap:round;stroke-linejoin:round;stroke-miterlimit:1.5;-inkscape-stroke:none"
         d="m 10.527344,292.02734 a 0.2645835,0.2645835 0 0 0 -0.1875,0.0781 l -1.292969,1.29297 a 0.2645835,0.2645835 0 0 0 0,0.375 0.2645835,0.2645835 0 0 0 0.3730469,0 l 1.2949221,-1.29297 a 0.2645835,0.2645835 0 0 0 0,-0.375 0.2645835,0.2645835 0 0 0 -0.1875,-0.0781 z"
         id="path221791" />
      <path
         style="color:#000000;clip-rule:evenodd;fill:#801231;fill-rule:evenodd;stroke-width:0.794695;stroke-linecap:round;stroke-linejoin:round;stroke-miterlimit:1.5;-inkscape-stroke:none"
         d="m 11.525391,292.15234 a 0.2645835,0.2645835 0 0 0 -0.1875,0.0781 l -1.7304691,1.73047 a 0.2645835,0.2645835 0 0 0 0,0.37304 0.2645835,0.2645835 0 0 0 0.375,0 l 1.7304691,-1.73046 a 0.2645835,0.2645835 0 0 0 0,-0.37305 0.2645835,0.2645835 0 0 0 -0.1875,-0.0781 z"
         id="path221793" />
      <path
         style="color:#000000;clip-rule:evenodd;fill:#e05e10;fill-rule:evenodd;stroke-width:0.794695;stroke-linecap:round;stroke-linejoin:round;stroke-miterlimit:1.5;-inkscape-stroke:none"
         d="m 9.0058594,287.21094 c -0.666054,0.6658 -2.0217953,2.01984 -2.6875,2.68554 -0.3148875,0.3149 -0.3148875,0.83355 0,1.14844 a 0.26460996,0.26460996 0 0 0 0.00195,0.002 c 0.3148295,0.31485 0.833608,0.31485 1.1484375,0 0.6656539,-0.66591 2.0197938,-2.01979 2.6855471,-2.68554 0.314887,-0.31489 0.314887,-0.83355 0,-1.14844 a 0.26460996,0.26460996 0 0 0 0,-0.002 c -5.35e-4,-5.4e-4 -0.0014,5.3e-4 -0.002,0 -0.3149293,-0.31353 -0.8322476,-0.3146 -1.1464847,0 z"
         id="path1623064" />
      <path
         style="color:#000000;clip-rule:evenodd;fill:#801231;fill-rule:evenodd;stroke-width:0.794695;stroke-linecap:round;stroke-linejoin:round;stroke-miterlimit:1.5;-inkscape-stroke:none"
         d="m 12.326172,290.05273 a 0.2645835,0.2645835 0 0 0 -0.263672,0.26368 v 1.84179 a 0.2645835,0.2645835 0 0 0 0.263672,0.26367 0.2645835,0.2645835 0 0 0 0.265625,-0.26367 v -1.84179 a 0.2645835,0.2645835 0 0 0 -0.265625,-0.26368 z"
         id="path221797" />
      <path
         style="color:#000000;clip-rule:evenodd;fill:#801231;fill-rule:evenodd;stroke-width:0.794695;stroke-linecap:round;stroke-linejoin:round;stroke-miterlimit:1.5;-inkscape-stroke:none"
         d="m 11.009766,290.8418 c -0.215919,0.21638 -0.216248,0.57477 0,0.79101 a 0.26460996,0.26460996 0 0 0 0.002,0 c 0.216388,0.21591 0.574769,0.21625 0.791015,0 0.216248,-0.21624 0.215919,-0.57463 0,-0.79101 -0.216242,-0.21626 -0.576584,-0.21593 -0.792968,0 z"
         id="path1623074" />
      <path
         style="color:#000000;clip-rule:evenodd;fill:#801231;fill-rule:evenodd;stroke-width:0.794695;stroke-linecap:round;stroke-linejoin:round;stroke-miterlimit:1.5;-inkscape-stroke:none"
         d="m 12.921875,290.77148 c -0.216366,0.21639 -0.216366,0.57464 0,0.79102 0.216388,0.21637 0.574628,0.21637 0.791016,0 0.216366,-0.21638 0.216366,-0.57463 0,-0.79102 -0.216384,-0.21638 -0.574632,-0.21638 -0.791016,0 z"
         id="path1623080" />
      <path
         style="color:#000000;clip-rule:evenodd;fill:#66342d;fill-rule:evenodd;stroke-width:0.794695;stroke-linecap:round;stroke-linejoin:round;stroke-miterlimit:1.5;-inkscape-stroke:none"
         d="m 4.7851562,284.6291 c 0,0 0.092983,-0.85768 0.5175782,-1.57227 0.2122974,-0.35729 0.5006502,-0.668 0.8886718,-0.83984 0.3880217,-0.17184 0.8881209,-0.21725 1.5839844,0.0117 1.1635133,0.38259 1.8747205,1.396 2.9980474,2.03906 1.076064,0.61604 2.522921,0.78287 4.921875,-0.40625 0.130166,-0.065 0.183392,-0.22297 0.11914,-0.35352 -0.06503,-0.13016 -0.222963,-0.18339 -0.353515,-0.11914 -2.310167,1.14512 -3.478579,0.96108 -4.423829,0.41992 -0.986886,-0.56495 -1.7395583,-1.63804 -3.0957028,-2.08398 v -1.7e-4 c -0.7905314,-0.26011 -1.4485222,-0.22085 -1.9648437,0.008 -0.5163215,0.22866 -0.8786103,0.63345 -1.1289063,1.05469 -0.5005919,0.84249 -0.5878906,1.78711 -0.5878906,1.78711 z"
         id="path221811"
         sodipodi:nodetypes="ccscccccccccccc" />
      <path
         style="color:#000000;clip-rule:evenodd;fill:#bf510d;fill-opacity:1;fill-rule:evenodd;stroke-width:0.794695;stroke-linecap:round;stroke-linejoin:round;stroke-miterlimit:1.5;-inkscape-stroke:none"
         d="m 5.8789062,285.26367 a 0.2645835,0.2645835 0 0 0 -0.2382812,0.28906 c 0.025854,0.25775 -0.058389,0.52432 -0.2558594,0.72266 -0.198862,0.19866 -0.4642609,0.28373 -0.7226562,0.25781 a 0.2645835,0.2645835 0 0 0 -0.2910157,0.23828 0.2645835,0.2645835 0 0 0 0.2382813,0.28907 c 0.4101268,0.0411 0.8352401,-0.0973 1.1484375,-0.41016 0.3130603,-0.31307 0.4512964,-0.74025 0.4101562,-1.15039 a 0.2645835,0.2645835 0 0 0 -0.2890625,-0.23633 z"
         id="path221805" />
      <path
         style="color:#000000;clip-rule:evenodd;fill:#e05e10;fill-rule:evenodd;stroke-width:0.794695;stroke-linecap:round;stroke-linejoin:round;stroke-miterlimit:1.5;-inkscape-stroke:none"
         d="m 7.4238281,285.91016 -2.40625,2.40625 a 0.2645835,0.2645835 0 0 0 0,0.375 0.2645835,0.2645835 0 0 0 0.3730469,0 l 2.4082031,-2.40821 a 0.2645835,0.2645835 0 0 0 0,-0.37304 0.2645835,0.2645835 0 0 0 -0.375,0 z"
         id="path221807" />
      <path
         style="color:#000000;clip-rule:evenodd;fill:#bf510d;fill-opacity:1;fill-rule:evenodd;stroke-width:0.794695;stroke-linecap:round;stroke-linejoin:round;stroke-miterlimit:1.5;-inkscape-stroke:none"
         d="m 6.3203125,288.86719 a 0.2645835,0.2645835 0 0 0 -0.3730469,0.002 l -0.625,0.62305 a 0.2645835,0.2645835 0 0 0 0,0.375 0.2645835,0.2645835 0 0 0 0.375,0 l 0.6230469,-0.625 a 0.2645835,0.2645835 0 0 0 0,-0.375 z"
         id="path1624817" />
      <path
         style="color:#000000;clip-rule:evenodd;fill:#bf510d;fill-opacity:1;fill-rule:evenodd;stroke-width:0.794695;stroke-linecap:round;stroke-linejoin:round;stroke-miterlimit:1.5;-inkscape-stroke:none"
         d="m 8.7871094,286.13672 a 0.2645835,0.2645835 0 0 0 -0.1875,0.0781 l -2.078125,2.07813 a 0.2645835,0.2645835 0 0 0 0,0.375 0.2645835,0.2645835 0 0 0 0.375,0 l 2.078125,-2.08008 a 0.2645835,0.2645835 0 0 0 0,-0.37305 0.2645835,0.2645835 0 0 0 -0.1875,-0.0781 z"
         id="path221809" />
      <path
         id="path1623090"
         style="color:#000000;clip-rule:evenodd;fill:#e05e10;fill-rule:evenodd;stroke-width:0.794695;stroke-linecap:round;stroke-linejoin:round;stroke-miterlimit:1.5;-inkscape-stroke:none"
         d="m 4.4705282,284.33772 c -0.2637949,0 -0.5269564,0.0994 -0.7265705,0.2992 -0.3994399,0.39943 -0.3995621,1.05546 0,1.4547 0.3992298,0.39956 1.0557677,0.39943 1.4552084,0 0.3995621,-0.39924 0.3994399,-1.05527 0,-1.4547 -0.1997194,-0.19973 -0.4648428,-0.2992 -0.7286379,-0.2992 z m 0.00156,0.52555 c 0.127558,-2e-5 0.2549925,0.0493 0.3534667,0.14779 0.196946,0.19695 0.1968241,0.50821 0,0.70487 -0.1969469,0.19695 -0.5102855,0.19682 -0.7069336,0 -0.1968249,-0.19666 -0.1969471,-0.50792 0,-0.70487 0.098325,-0.0984 0.2259086,-0.14778 0.3534669,-0.14779 z" />
    </g>
  </g>
</svg>
